<mxfile host="app.diagrams.net" modified="2022-10-20T01:27:42.758Z" agent="5.0 (Windows NT 10.0; Win64; x64) AppleWebKit/537.36 (KHTML, like Gecko) Chrome/106.0.0.0 Safari/537.36" etag="73BxKP16MpRg4ajPiKtk" version="20.4.0" type="github">
  <diagram id="kgpKYQtTHZ0yAKxKKP6v" name="Page-1">
    <mxGraphModel dx="944" dy="490" grid="1" gridSize="10" guides="1" tooltips="1" connect="1" arrows="1" fold="1" page="1" pageScale="1" pageWidth="850" pageHeight="1100" math="0" shadow="0">
      <root>
        <mxCell id="0" />
        <mxCell id="1" parent="0" />
        <mxCell id="S2JzVYqU0EBKo4TFE7KJ-13" value="" style="endArrow=none;dashed=1;html=1;rounded=0;" edge="1" parent="1">
          <mxGeometry width="50" height="50" relative="1" as="geometry">
            <mxPoint x="90.55" y="1317" as="sourcePoint" />
            <mxPoint x="90.55" y="1287" as="targetPoint" />
          </mxGeometry>
        </mxCell>
        <mxCell id="3nuBFxr9cyL0pnOWT2aG-1" value=":Thủ thư" style="shape=umlLifeline;perimeter=lifelinePerimeter;container=1;collapsible=0;recursiveResize=0;rounded=0;shadow=0;strokeWidth=1;" parent="1" vertex="1">
          <mxGeometry x="120" y="80" width="100" height="440" as="geometry" />
        </mxCell>
        <mxCell id="3nuBFxr9cyL0pnOWT2aG-2" value="" style="points=[];perimeter=orthogonalPerimeter;rounded=0;shadow=0;strokeWidth=1;fillColor=#ffe6cc;strokeColor=#d79b00;" parent="3nuBFxr9cyL0pnOWT2aG-1" vertex="1">
          <mxGeometry x="45" y="70" width="10" height="350" as="geometry" />
        </mxCell>
        <mxCell id="3nuBFxr9cyL0pnOWT2aG-5" value=":Form đăng nhập" style="shape=umlLifeline;perimeter=lifelinePerimeter;container=1;collapsible=0;recursiveResize=0;rounded=0;shadow=0;strokeWidth=1;" parent="1" vertex="1">
          <mxGeometry x="300" y="80" width="100" height="440" as="geometry" />
        </mxCell>
        <mxCell id="3nuBFxr9cyL0pnOWT2aG-6" value="" style="points=[];perimeter=orthogonalPerimeter;rounded=0;shadow=0;strokeWidth=1;fillColor=#ffe6cc;strokeColor=#d79b00;" parent="3nuBFxr9cyL0pnOWT2aG-5" vertex="1">
          <mxGeometry x="45" y="70" width="10" height="350" as="geometry" />
        </mxCell>
        <mxCell id="CmoEx9Rfht6jRH0gk-lO-9" value="Hiện chức năng &#xa;đổi password" style="verticalAlign=bottom;endArrow=open;dashed=1;endSize=8;shadow=0;strokeWidth=1;exitX=-0.01;exitY=0.5;exitDx=0;exitDy=0;exitPerimeter=0;" parent="3nuBFxr9cyL0pnOWT2aG-5" edge="1">
          <mxGeometry x="-0.0006" relative="1" as="geometry">
            <mxPoint x="-125" y="240" as="targetPoint" />
            <mxPoint x="44.89999999999998" y="240" as="sourcePoint" />
            <Array as="points">
              <mxPoint x="-20" y="240" />
            </Array>
            <mxPoint as="offset" />
          </mxGeometry>
        </mxCell>
        <mxCell id="3nuBFxr9cyL0pnOWT2aG-7" value="Đăng nhập thành công" style="verticalAlign=bottom;endArrow=open;dashed=1;endSize=8;shadow=0;strokeWidth=1;" parent="1" source="3nuBFxr9cyL0pnOWT2aG-5" target="3nuBFxr9cyL0pnOWT2aG-2" edge="1">
          <mxGeometry x="-0.0888" y="-10" relative="1" as="geometry">
            <mxPoint x="275" y="236" as="targetPoint" />
            <mxPoint x="340" y="280" as="sourcePoint" />
            <Array as="points">
              <mxPoint x="280" y="240" />
            </Array>
            <mxPoint as="offset" />
          </mxGeometry>
        </mxCell>
        <mxCell id="3nuBFxr9cyL0pnOWT2aG-8" value="Nhập Username và Password" style="verticalAlign=bottom;endArrow=block;entryX=0.1;entryY=0.041;shadow=0;strokeWidth=1;entryDx=0;entryDy=0;entryPerimeter=0;" parent="1" source="3nuBFxr9cyL0pnOWT2aG-2" target="3nuBFxr9cyL0pnOWT2aG-6" edge="1">
          <mxGeometry relative="1" as="geometry">
            <mxPoint x="275" y="160" as="sourcePoint" />
          </mxGeometry>
        </mxCell>
        <mxCell id="3nuBFxr9cyL0pnOWT2aG-9" value="Kiểm tra User và Pass" style="verticalAlign=bottom;endArrow=block;shadow=0;strokeWidth=1;" parent="1" source="3nuBFxr9cyL0pnOWT2aG-6" target="3nuBFxr9cyL0pnOWT2aG-4" edge="1">
          <mxGeometry relative="1" as="geometry">
            <mxPoint x="240" y="200" as="sourcePoint" />
            <mxPoint x="500" y="190" as="targetPoint" />
            <Array as="points">
              <mxPoint x="470" y="180" />
            </Array>
          </mxGeometry>
        </mxCell>
        <mxCell id="3nuBFxr9cyL0pnOWT2aG-10" value="Xác thực thành công" style="verticalAlign=bottom;endArrow=open;dashed=1;endSize=8;shadow=0;strokeWidth=1;" parent="1" source="CmoEx9Rfht6jRH0gk-lO-1" target="3nuBFxr9cyL0pnOWT2aG-6" edge="1">
          <mxGeometry relative="1" as="geometry">
            <mxPoint x="240" y="257" as="targetPoint" />
            <Array as="points">
              <mxPoint x="430" y="220" />
            </Array>
          </mxGeometry>
        </mxCell>
        <mxCell id="CmoEx9Rfht6jRH0gk-lO-1" value=":DK Đăng Nhập" style="shape=umlLifeline;perimeter=lifelinePerimeter;container=1;collapsible=0;recursiveResize=0;rounded=0;shadow=0;strokeWidth=1;" parent="1" vertex="1">
          <mxGeometry x="460" y="80" width="100" height="440" as="geometry" />
        </mxCell>
        <mxCell id="3nuBFxr9cyL0pnOWT2aG-4" value="" style="points=[];perimeter=orthogonalPerimeter;rounded=0;shadow=0;strokeWidth=1;fillColor=#ffe6cc;strokeColor=#d79b00;" parent="CmoEx9Rfht6jRH0gk-lO-1" vertex="1">
          <mxGeometry x="45" y="99" width="10" height="60" as="geometry" />
        </mxCell>
        <mxCell id="CmoEx9Rfht6jRH0gk-lO-2" value="" style="points=[];perimeter=orthogonalPerimeter;rounded=0;shadow=0;strokeWidth=1;fillColor=#fff2cc;strokeColor=#d6b656;" parent="CmoEx9Rfht6jRH0gk-lO-1" vertex="1">
          <mxGeometry x="45" y="300" width="10" height="80" as="geometry" />
        </mxCell>
        <mxCell id="CmoEx9Rfht6jRH0gk-lO-3" value=":Thủ thư" style="shape=umlLifeline;perimeter=lifelinePerimeter;container=1;collapsible=0;recursiveResize=0;rounded=0;shadow=0;strokeWidth=1;" parent="1" vertex="1">
          <mxGeometry x="630" y="80" width="100" height="440" as="geometry" />
        </mxCell>
        <mxCell id="CmoEx9Rfht6jRH0gk-lO-4" value="" style="points=[];perimeter=orthogonalPerimeter;rounded=0;shadow=0;strokeWidth=1;fillColor=#ffe6cc;strokeColor=#d79b00;" parent="CmoEx9Rfht6jRH0gk-lO-3" vertex="1">
          <mxGeometry x="45" y="109" width="10" height="50" as="geometry" />
        </mxCell>
        <mxCell id="CmoEx9Rfht6jRH0gk-lO-21" value="" style="points=[];perimeter=orthogonalPerimeter;rounded=0;shadow=0;strokeWidth=1;fillColor=#ffe6cc;strokeColor=#d79b00;" parent="CmoEx9Rfht6jRH0gk-lO-3" vertex="1">
          <mxGeometry x="45" y="310" width="10" height="50" as="geometry" />
        </mxCell>
        <mxCell id="CmoEx9Rfht6jRH0gk-lO-25" value="Xác thực thành công" style="verticalAlign=bottom;endArrow=open;dashed=1;endSize=8;shadow=0;strokeWidth=1;exitX=-0.026;exitY=0.856;exitDx=0;exitDy=0;exitPerimeter=0;" parent="CmoEx9Rfht6jRH0gk-lO-3" edge="1">
          <mxGeometry x="-0.0685" relative="1" as="geometry">
            <mxPoint x="-110" y="150.07999999999993" as="targetPoint" />
            <mxPoint x="39.74000000000001" y="150" as="sourcePoint" />
            <Array as="points">
              <mxPoint x="-5" y="150.07999999999998" />
            </Array>
            <mxPoint as="offset" />
          </mxGeometry>
        </mxCell>
        <mxCell id="CmoEx9Rfht6jRH0gk-lO-8" value="Nhập Username và Password" style="verticalAlign=bottom;endArrow=block;shadow=0;strokeWidth=1;" parent="1" source="3nuBFxr9cyL0pnOWT2aG-2" target="3nuBFxr9cyL0pnOWT2aG-6" edge="1">
          <mxGeometry relative="1" as="geometry">
            <mxPoint x="180" y="320" as="sourcePoint" />
            <mxPoint x="340" y="280" as="targetPoint" />
            <Array as="points">
              <mxPoint x="270" y="280" />
              <mxPoint x="330" y="280" />
            </Array>
          </mxGeometry>
        </mxCell>
        <mxCell id="CmoEx9Rfht6jRH0gk-lO-12" value="Nhập Password mới" style="verticalAlign=bottom;endArrow=block;shadow=0;strokeWidth=1;" parent="1" source="3nuBFxr9cyL0pnOWT2aG-2" target="3nuBFxr9cyL0pnOWT2aG-6" edge="1">
          <mxGeometry relative="1" as="geometry">
            <mxPoint x="180" y="360" as="sourcePoint" />
            <mxPoint x="345" y="280" as="targetPoint" />
            <Array as="points">
              <mxPoint x="260" y="360" />
              <mxPoint x="290" y="360" />
              <mxPoint x="300" y="360" />
              <mxPoint x="330" y="360" />
            </Array>
          </mxGeometry>
        </mxCell>
        <mxCell id="CmoEx9Rfht6jRH0gk-lO-15" value="Thay đổi password" style="verticalAlign=bottom;endArrow=block;shadow=0;strokeWidth=1;entryX=-0.085;entryY=-0.003;entryDx=0;entryDy=0;entryPerimeter=0;" parent="1" source="3nuBFxr9cyL0pnOWT2aG-6" target="CmoEx9Rfht6jRH0gk-lO-2" edge="1">
          <mxGeometry relative="1" as="geometry">
            <mxPoint x="355" y="180" as="sourcePoint" />
            <mxPoint x="500" y="380" as="targetPoint" />
            <Array as="points">
              <mxPoint x="440" y="380" />
              <mxPoint x="450" y="380" />
            </Array>
          </mxGeometry>
        </mxCell>
        <mxCell id="CmoEx9Rfht6jRH0gk-lO-17" value="Xác thực thay đổi &#xa;thành công" style="verticalAlign=bottom;endArrow=open;dashed=1;endSize=8;shadow=0;strokeWidth=1;exitX=-0.059;exitY=0.993;exitDx=0;exitDy=0;exitPerimeter=0;" parent="1" source="CmoEx9Rfht6jRH0gk-lO-2" edge="1">
          <mxGeometry x="-0.0017" relative="1" as="geometry">
            <mxPoint x="360" y="460" as="targetPoint" />
            <mxPoint x="500" y="400" as="sourcePoint" />
            <Array as="points" />
            <mxPoint as="offset" />
          </mxGeometry>
        </mxCell>
        <mxCell id="CmoEx9Rfht6jRH0gk-lO-20" value="Xác thực thành công" style="verticalAlign=bottom;endArrow=open;dashed=1;endSize=8;shadow=0;strokeWidth=1;exitX=-0.026;exitY=0.856;exitDx=0;exitDy=0;exitPerimeter=0;" parent="1" edge="1">
          <mxGeometry x="-0.0685" relative="1" as="geometry">
            <mxPoint x="520" y="430.07999999999987" as="targetPoint" />
            <mxPoint x="669.74" y="429.99999999999994" as="sourcePoint" />
            <Array as="points">
              <mxPoint x="625" y="430.08" />
            </Array>
            <mxPoint as="offset" />
          </mxGeometry>
        </mxCell>
        <mxCell id="CmoEx9Rfht6jRH0gk-lO-13" value="Xác thực thay đổi &#xa;thành công" style="verticalAlign=bottom;endArrow=open;dashed=1;endSize=8;shadow=0;strokeWidth=1;exitX=-0.01;exitY=0.5;exitDx=0;exitDy=0;exitPerimeter=0;" parent="1" edge="1">
          <mxGeometry x="-0.0006" relative="1" as="geometry">
            <mxPoint x="175.1" y="480" as="targetPoint" />
            <mxPoint x="345" y="480" as="sourcePoint" />
            <Array as="points">
              <mxPoint x="280.1" y="480" />
            </Array>
            <mxPoint as="offset" />
          </mxGeometry>
        </mxCell>
        <mxCell id="CmoEx9Rfht6jRH0gk-lO-23" value="Kiểm tra" style="verticalAlign=bottom;endArrow=block;shadow=0;strokeWidth=1;" parent="1" edge="1">
          <mxGeometry relative="1" as="geometry">
            <mxPoint x="520" y="390.18" as="sourcePoint" />
            <mxPoint x="670" y="390" as="targetPoint" />
            <Array as="points">
              <mxPoint x="605" y="390.18" />
              <mxPoint x="615" y="390.18" />
            </Array>
          </mxGeometry>
        </mxCell>
        <mxCell id="CmoEx9Rfht6jRH0gk-lO-24" value="Kiểm tra" style="verticalAlign=bottom;endArrow=block;shadow=0;strokeWidth=1;" parent="1" edge="1">
          <mxGeometry relative="1" as="geometry">
            <mxPoint x="520" y="190.18000000000006" as="sourcePoint" />
            <mxPoint x="670" y="190" as="targetPoint" />
            <Array as="points">
              <mxPoint x="605" y="190.18" />
              <mxPoint x="615" y="190.18" />
            </Array>
          </mxGeometry>
        </mxCell>
        <mxCell id="CmoEx9Rfht6jRH0gk-lO-26" value=":Độc giả" style="shape=umlLifeline;perimeter=lifelinePerimeter;container=1;collapsible=0;recursiveResize=0;rounded=0;shadow=0;strokeWidth=1;" parent="1" vertex="1">
          <mxGeometry x="40" y="600" width="100" height="440" as="geometry" />
        </mxCell>
        <mxCell id="CmoEx9Rfht6jRH0gk-lO-27" value="" style="points=[];perimeter=orthogonalPerimeter;rounded=0;shadow=0;strokeWidth=1;fillColor=#ffe6cc;strokeColor=#d79b00;" parent="CmoEx9Rfht6jRH0gk-lO-26" vertex="1">
          <mxGeometry x="45" y="70" width="10" height="350" as="geometry" />
        </mxCell>
        <mxCell id="CmoEx9Rfht6jRH0gk-lO-28" value=":Form tìm kiếm" style="shape=umlLifeline;perimeter=lifelinePerimeter;container=1;collapsible=0;recursiveResize=0;rounded=0;shadow=0;strokeWidth=1;" parent="1" vertex="1">
          <mxGeometry x="210" y="600" width="100" height="440" as="geometry" />
        </mxCell>
        <mxCell id="CmoEx9Rfht6jRH0gk-lO-29" value="" style="points=[];perimeter=orthogonalPerimeter;rounded=0;shadow=0;strokeWidth=1;fillColor=#ffe6cc;strokeColor=#d79b00;" parent="CmoEx9Rfht6jRH0gk-lO-28" vertex="1">
          <mxGeometry x="45" y="70" width="10" height="350" as="geometry" />
        </mxCell>
        <mxCell id="CmoEx9Rfht6jRH0gk-lO-31" value="Hiện danh mục chức &#xa;năng tìm kiếm" style="verticalAlign=bottom;endArrow=open;dashed=1;endSize=8;shadow=0;strokeWidth=1;" parent="1" edge="1">
          <mxGeometry x="-0.0334" relative="1" as="geometry">
            <mxPoint x="95" y="730" as="targetPoint" />
            <mxPoint x="250" y="730" as="sourcePoint" />
            <Array as="points">
              <mxPoint x="210" y="730" />
              <mxPoint x="190" y="730" />
            </Array>
            <mxPoint as="offset" />
          </mxGeometry>
        </mxCell>
        <mxCell id="CmoEx9Rfht6jRH0gk-lO-32" value="Chọn chức năng tìm kiếm" style="verticalAlign=bottom;endArrow=block;entryX=0.1;entryY=0.041;shadow=0;strokeWidth=1;entryDx=0;entryDy=0;entryPerimeter=0;" parent="1" source="CmoEx9Rfht6jRH0gk-lO-27" target="CmoEx9Rfht6jRH0gk-lO-29" edge="1">
          <mxGeometry relative="1" as="geometry">
            <mxPoint x="195" y="680" as="sourcePoint" />
          </mxGeometry>
        </mxCell>
        <mxCell id="CmoEx9Rfht6jRH0gk-lO-33" value="Yêu cầu tìm kiếm" style="verticalAlign=bottom;endArrow=block;shadow=0;strokeWidth=1;" parent="1" source="CmoEx9Rfht6jRH0gk-lO-29" target="CmoEx9Rfht6jRH0gk-lO-36" edge="1">
          <mxGeometry relative="1" as="geometry">
            <mxPoint x="160" y="720" as="sourcePoint" />
            <mxPoint x="420" y="710" as="targetPoint" />
            <Array as="points">
              <mxPoint x="390" y="700" />
            </Array>
          </mxGeometry>
        </mxCell>
        <mxCell id="CmoEx9Rfht6jRH0gk-lO-35" value=":DK Tìm kiếm" style="shape=umlLifeline;perimeter=lifelinePerimeter;container=1;collapsible=0;recursiveResize=0;rounded=0;shadow=0;strokeWidth=1;" parent="1" vertex="1">
          <mxGeometry x="375" y="600" width="100" height="440" as="geometry" />
        </mxCell>
        <mxCell id="CmoEx9Rfht6jRH0gk-lO-36" value="" style="points=[];perimeter=orthogonalPerimeter;rounded=0;shadow=0;strokeWidth=1;fillColor=#ffe6cc;strokeColor=#d79b00;" parent="CmoEx9Rfht6jRH0gk-lO-35" vertex="1">
          <mxGeometry x="45" y="99" width="10" height="231" as="geometry" />
        </mxCell>
        <mxCell id="CmoEx9Rfht6jRH0gk-lO-49" value="Xử lý tử khóa tìm kiếm" style="verticalAlign=bottom;endArrow=block;shadow=0;strokeWidth=1;" parent="CmoEx9Rfht6jRH0gk-lO-35" edge="1">
          <mxGeometry x="-0.1905" y="10" relative="1" as="geometry">
            <mxPoint x="55" y="154" as="sourcePoint" />
            <mxPoint x="55" y="184" as="targetPoint" />
            <Array as="points">
              <mxPoint x="115" y="154" />
              <mxPoint x="115" y="184" />
            </Array>
            <mxPoint as="offset" />
          </mxGeometry>
        </mxCell>
        <mxCell id="CmoEx9Rfht6jRH0gk-lO-38" value=":Sách" style="shape=umlLifeline;perimeter=lifelinePerimeter;container=1;collapsible=0;recursiveResize=0;rounded=0;shadow=0;strokeWidth=1;" parent="1" vertex="1">
          <mxGeometry x="540" y="600" width="100" height="440" as="geometry" />
        </mxCell>
        <mxCell id="CmoEx9Rfht6jRH0gk-lO-39" value="" style="points=[];perimeter=orthogonalPerimeter;rounded=0;shadow=0;strokeWidth=1;fillColor=#ffe6cc;strokeColor=#d79b00;" parent="CmoEx9Rfht6jRH0gk-lO-38" vertex="1">
          <mxGeometry x="45" y="109" width="10" height="50" as="geometry" />
        </mxCell>
        <mxCell id="CmoEx9Rfht6jRH0gk-lO-40" value="" style="points=[];perimeter=orthogonalPerimeter;rounded=0;shadow=0;strokeWidth=1;fillColor=#ffe6cc;strokeColor=#d79b00;" parent="CmoEx9Rfht6jRH0gk-lO-38" vertex="1">
          <mxGeometry x="45" y="240" width="10" height="50" as="geometry" />
        </mxCell>
        <mxCell id="CmoEx9Rfht6jRH0gk-lO-42" value="Nhập điều kiện tìm kiếm" style="verticalAlign=bottom;endArrow=block;shadow=0;strokeWidth=1;" parent="1" edge="1">
          <mxGeometry relative="1" as="geometry">
            <mxPoint x="95" y="768" as="sourcePoint" />
            <mxPoint x="255" y="768" as="targetPoint" />
            <Array as="points">
              <mxPoint x="190" y="768" />
              <mxPoint x="250" y="768" />
            </Array>
          </mxGeometry>
        </mxCell>
        <mxCell id="CmoEx9Rfht6jRH0gk-lO-45" value="Thông báo kết quả" style="verticalAlign=bottom;endArrow=open;dashed=1;endSize=8;shadow=0;strokeWidth=1;" parent="1" edge="1">
          <mxGeometry x="-0.0017" relative="1" as="geometry">
            <mxPoint x="270" y="920" as="targetPoint" />
            <mxPoint x="420" y="920" as="sourcePoint" />
            <Array as="points">
              <mxPoint x="370" y="920" />
            </Array>
            <mxPoint as="offset" />
          </mxGeometry>
        </mxCell>
        <mxCell id="CmoEx9Rfht6jRH0gk-lO-46" value="Xác thực thành công" style="verticalAlign=bottom;endArrow=open;dashed=1;endSize=8;shadow=0;strokeWidth=1;exitX=-0.026;exitY=0.856;exitDx=0;exitDy=0;exitPerimeter=0;" parent="1" edge="1">
          <mxGeometry x="-0.0685" relative="1" as="geometry">
            <mxPoint x="433.13" y="880.0799999999999" as="targetPoint" />
            <mxPoint x="582.87" y="880" as="sourcePoint" />
            <Array as="points">
              <mxPoint x="538.13" y="880.0799999999999" />
            </Array>
            <mxPoint as="offset" />
          </mxGeometry>
        </mxCell>
        <mxCell id="CmoEx9Rfht6jRH0gk-lO-48" value="Thực hiện tìm kiếm" style="verticalAlign=bottom;endArrow=block;shadow=0;strokeWidth=1;" parent="1" edge="1">
          <mxGeometry relative="1" as="geometry">
            <mxPoint x="434" y="840.1800000000001" as="sourcePoint" />
            <mxPoint x="584" y="840" as="targetPoint" />
            <Array as="points">
              <mxPoint x="519" y="840.1800000000001" />
              <mxPoint x="529" y="840.1800000000001" />
            </Array>
          </mxGeometry>
        </mxCell>
        <mxCell id="CmoEx9Rfht6jRH0gk-lO-50" value=":Form KQ tìm kiếm" style="shape=umlLifeline;perimeter=lifelinePerimeter;container=1;collapsible=0;recursiveResize=0;rounded=0;shadow=0;strokeWidth=1;" parent="1" vertex="1">
          <mxGeometry x="700" y="600" width="110" height="440" as="geometry" />
        </mxCell>
        <mxCell id="CmoEx9Rfht6jRH0gk-lO-52" value="" style="points=[];perimeter=orthogonalPerimeter;rounded=0;shadow=0;strokeWidth=1;fillColor=#ffe6cc;strokeColor=#d79b00;" parent="CmoEx9Rfht6jRH0gk-lO-50" vertex="1">
          <mxGeometry x="50" y="360" width="10" height="60" as="geometry" />
        </mxCell>
        <mxCell id="CmoEx9Rfht6jRH0gk-lO-55" value="Hiển thị kết quả tìm kiếm" style="verticalAlign=bottom;endArrow=block;shadow=0;strokeWidth=1;" parent="1" edge="1">
          <mxGeometry x="0.2258" relative="1" as="geometry">
            <mxPoint x="425" y="960.1800000000001" as="sourcePoint" />
            <mxPoint x="750" y="960" as="targetPoint" />
            <Array as="points">
              <mxPoint x="270" y="960" />
              <mxPoint x="510" y="960.1800000000001" />
              <mxPoint x="520" y="960.1800000000001" />
            </Array>
            <mxPoint as="offset" />
          </mxGeometry>
        </mxCell>
        <mxCell id="CmoEx9Rfht6jRH0gk-lO-53" value="Hiển thị kết quả tìm kiếm" style="verticalAlign=bottom;endArrow=open;dashed=1;endSize=8;shadow=0;strokeWidth=1;" parent="1" edge="1">
          <mxGeometry x="-0.2615" relative="1" as="geometry">
            <mxPoint x="270" y="1000" as="targetPoint" />
            <mxPoint x="750" y="1000" as="sourcePoint" />
            <Array as="points">
              <mxPoint x="375" y="1000.0799999999999" />
            </Array>
            <mxPoint as="offset" />
          </mxGeometry>
        </mxCell>
        <mxCell id="CmoEx9Rfht6jRH0gk-lO-61" value=":Form mượn sách" style="shape=umlLifeline;perimeter=lifelinePerimeter;container=1;collapsible=0;recursiveResize=0;rounded=0;shadow=0;strokeWidth=1;" parent="1" vertex="1">
          <mxGeometry x="180" y="1240" width="100" height="520" as="geometry" />
        </mxCell>
        <mxCell id="CmoEx9Rfht6jRH0gk-lO-62" value="" style="points=[];perimeter=orthogonalPerimeter;rounded=0;shadow=0;strokeWidth=1;fillColor=#ffe6cc;strokeColor=#d79b00;" parent="CmoEx9Rfht6jRH0gk-lO-61" vertex="1">
          <mxGeometry x="45" y="80" width="10" height="360" as="geometry" />
        </mxCell>
        <mxCell id="CmoEx9Rfht6jRH0gk-lO-64" value="Trả về thẻ mượn" style="verticalAlign=bottom;endArrow=open;dashed=1;endSize=8;shadow=0;strokeWidth=1;" parent="CmoEx9Rfht6jRH0gk-lO-61" edge="1">
          <mxGeometry x="-0.0877" relative="1" as="geometry">
            <mxPoint x="-82.97619047619048" y="420" as="targetPoint" />
            <mxPoint x="41" y="420" as="sourcePoint" />
            <Array as="points">
              <mxPoint x="42" y="420" />
              <mxPoint x="-23" y="420" />
            </Array>
            <mxPoint as="offset" />
          </mxGeometry>
        </mxCell>
        <mxCell id="CmoEx9Rfht6jRH0gk-lO-65" value=":DK Mượn sách" style="shape=umlLifeline;perimeter=lifelinePerimeter;container=1;collapsible=0;recursiveResize=0;rounded=0;shadow=0;strokeWidth=1;" parent="1" vertex="1">
          <mxGeometry x="310" y="1240" width="100" height="520" as="geometry" />
        </mxCell>
        <mxCell id="CmoEx9Rfht6jRH0gk-lO-66" value="" style="points=[];perimeter=orthogonalPerimeter;rounded=0;shadow=0;strokeWidth=1;fillColor=#ffe6cc;strokeColor=#d79b00;" parent="CmoEx9Rfht6jRH0gk-lO-65" vertex="1">
          <mxGeometry x="45" y="150" width="10" height="160" as="geometry" />
        </mxCell>
        <mxCell id="CmoEx9Rfht6jRH0gk-lO-67" value="" style="points=[];perimeter=orthogonalPerimeter;rounded=0;shadow=0;strokeWidth=1;fillColor=#ffe6cc;strokeColor=#d79b00;" parent="CmoEx9Rfht6jRH0gk-lO-65" vertex="1">
          <mxGeometry x="45" y="340" width="10" height="70" as="geometry" />
        </mxCell>
        <mxCell id="CmoEx9Rfht6jRH0gk-lO-68" value="Yêu cầu xác nhận &#xa;thông tin" style="verticalAlign=bottom;endArrow=block;shadow=0;strokeWidth=1;" parent="CmoEx9Rfht6jRH0gk-lO-65" edge="1">
          <mxGeometry relative="1" as="geometry">
            <mxPoint x="-75" y="150" as="sourcePoint" />
            <mxPoint x="45" y="150" as="targetPoint" />
            <Array as="points">
              <mxPoint x="-15" y="150.18" />
              <mxPoint x="-5" y="150.18" />
            </Array>
          </mxGeometry>
        </mxCell>
        <mxCell id="CmoEx9Rfht6jRH0gk-lO-69" value="Hiển thị thẻ mượn" style="verticalAlign=bottom;endArrow=open;dashed=1;endSize=8;shadow=0;strokeWidth=1;" parent="CmoEx9Rfht6jRH0gk-lO-65" edge="1">
          <mxGeometry x="-0.0877" relative="1" as="geometry">
            <mxPoint x="-72" y="400" as="targetPoint" />
            <mxPoint x="42" y="400" as="sourcePoint" />
            <Array as="points">
              <mxPoint x="33" y="400" />
            </Array>
            <mxPoint as="offset" />
          </mxGeometry>
        </mxCell>
        <mxCell id="CmoEx9Rfht6jRH0gk-lO-70" value=":Độc giả" style="shape=umlLifeline;perimeter=lifelinePerimeter;container=1;collapsible=0;recursiveResize=0;rounded=0;shadow=0;strokeWidth=1;" parent="1" vertex="1">
          <mxGeometry x="450" y="1240" width="100" height="520" as="geometry" />
        </mxCell>
        <mxCell id="CmoEx9Rfht6jRH0gk-lO-71" value="" style="points=[];perimeter=orthogonalPerimeter;rounded=0;shadow=0;strokeWidth=1;fillColor=#ffe6cc;strokeColor=#d79b00;" parent="CmoEx9Rfht6jRH0gk-lO-70" vertex="1">
          <mxGeometry x="45" y="170" width="10" height="40" as="geometry" />
        </mxCell>
        <mxCell id="CmoEx9Rfht6jRH0gk-lO-72" value="Xác nhận bạn đọc" style="verticalAlign=bottom;endArrow=block;shadow=0;strokeWidth=1;" parent="CmoEx9Rfht6jRH0gk-lO-70" edge="1">
          <mxGeometry relative="1" as="geometry">
            <mxPoint x="-80" y="170" as="sourcePoint" />
            <mxPoint x="40" y="170" as="targetPoint" />
            <Array as="points">
              <mxPoint x="-20" y="170.18" />
              <mxPoint x="-10" y="170.18" />
            </Array>
          </mxGeometry>
        </mxCell>
        <mxCell id="CmoEx9Rfht6jRH0gk-lO-73" value="Xác thực thông tin sách" style="verticalAlign=bottom;endArrow=block;shadow=0;strokeWidth=1;" parent="CmoEx9Rfht6jRH0gk-lO-70" edge="1">
          <mxGeometry relative="1" as="geometry">
            <mxPoint x="-85" y="240" as="sourcePoint" />
            <mxPoint x="184.5" y="240.18" as="targetPoint" />
            <Array as="points">
              <mxPoint x="-25" y="240.18" />
              <mxPoint x="-15" y="240.18" />
            </Array>
          </mxGeometry>
        </mxCell>
        <mxCell id="CmoEx9Rfht6jRH0gk-lO-74" value="Xác nhận sách có thể được mượn" style="verticalAlign=bottom;endArrow=open;dashed=1;endSize=8;shadow=0;strokeWidth=1;" parent="CmoEx9Rfht6jRH0gk-lO-70" source="CmoEx9Rfht6jRH0gk-lO-77" edge="1">
          <mxGeometry x="-0.0006" relative="1" as="geometry">
            <mxPoint x="-80" y="270" as="targetPoint" />
            <mxPoint x="45" y="260" as="sourcePoint" />
            <Array as="points">
              <mxPoint x="140" y="270" />
            </Array>
            <mxPoint as="offset" />
          </mxGeometry>
        </mxCell>
        <mxCell id="CmoEx9Rfht6jRH0gk-lO-75" value="Tạo thẻ mượn mới" style="verticalAlign=bottom;endArrow=block;shadow=0;strokeWidth=1;entryX=-0.28;entryY=0.011;entryDx=0;entryDy=0;entryPerimeter=0;" parent="CmoEx9Rfht6jRH0gk-lO-70" target="CmoEx9Rfht6jRH0gk-lO-80" edge="1">
          <mxGeometry relative="1" as="geometry">
            <mxPoint x="-84.75" y="360" as="sourcePoint" />
            <mxPoint x="184.75" y="360.18000000000006" as="targetPoint" />
            <Array as="points">
              <mxPoint x="-24.75" y="360.18" />
              <mxPoint x="-14.75" y="360.18" />
            </Array>
          </mxGeometry>
        </mxCell>
        <mxCell id="CmoEx9Rfht6jRH0gk-lO-76" value="Xác nhận thẻ mượn mới" style="verticalAlign=bottom;endArrow=open;dashed=1;endSize=8;shadow=0;strokeWidth=1;" parent="CmoEx9Rfht6jRH0gk-lO-70" source="CmoEx9Rfht6jRH0gk-lO-79" edge="1">
          <mxGeometry x="-0.0006" relative="1" as="geometry">
            <mxPoint x="-84.75" y="380" as="targetPoint" />
            <mxPoint x="184.75" y="380" as="sourcePoint" />
            <Array as="points">
              <mxPoint x="135.25" y="380" />
            </Array>
            <mxPoint as="offset" />
          </mxGeometry>
        </mxCell>
        <mxCell id="CmoEx9Rfht6jRH0gk-lO-77" value=":Sách" style="shape=umlLifeline;perimeter=lifelinePerimeter;container=1;collapsible=0;recursiveResize=0;rounded=0;shadow=0;strokeWidth=1;" parent="1" vertex="1">
          <mxGeometry x="590" y="1240" width="100" height="520" as="geometry" />
        </mxCell>
        <mxCell id="CmoEx9Rfht6jRH0gk-lO-78" value="" style="points=[];perimeter=orthogonalPerimeter;rounded=0;shadow=0;strokeWidth=1;fillColor=#ffe6cc;strokeColor=#d79b00;" parent="CmoEx9Rfht6jRH0gk-lO-77" vertex="1">
          <mxGeometry x="45" y="240" width="10" height="40" as="geometry" />
        </mxCell>
        <mxCell id="CmoEx9Rfht6jRH0gk-lO-79" value=":Thẻ mượn" style="shape=umlLifeline;perimeter=lifelinePerimeter;container=1;collapsible=0;recursiveResize=0;rounded=0;shadow=0;strokeWidth=1;" parent="1" vertex="1">
          <mxGeometry x="730" y="1240" width="100" height="520" as="geometry" />
        </mxCell>
        <mxCell id="CmoEx9Rfht6jRH0gk-lO-80" value="" style="points=[];perimeter=orthogonalPerimeter;rounded=0;shadow=0;strokeWidth=1;fillColor=#ffe6cc;strokeColor=#d79b00;" parent="CmoEx9Rfht6jRH0gk-lO-79" vertex="1">
          <mxGeometry x="45" y="360" width="10" height="30" as="geometry" />
        </mxCell>
        <mxCell id="CmoEx9Rfht6jRH0gk-lO-83" value="Xác nhận thành công" style="verticalAlign=bottom;endArrow=open;dashed=1;endSize=8;shadow=0;strokeWidth=1;" parent="1" edge="1">
          <mxGeometry x="-0.12" relative="1" as="geometry">
            <mxPoint x="370" y="1440" as="targetPoint" />
            <mxPoint x="495" y="1440" as="sourcePoint" />
            <Array as="points">
              <mxPoint x="475" y="1440" />
            </Array>
            <mxPoint as="offset" />
          </mxGeometry>
        </mxCell>
        <mxCell id="CmoEx9Rfht6jRH0gk-lO-84" value="Xác nhận thông tin" style="verticalAlign=bottom;endArrow=open;dashed=1;endSize=8;shadow=0;strokeWidth=1;" parent="1" edge="1">
          <mxGeometry x="-0.0006" relative="1" as="geometry">
            <mxPoint x="237" y="1530" as="targetPoint" />
            <mxPoint x="352" y="1530" as="sourcePoint" />
            <Array as="points">
              <mxPoint x="332" y="1530" />
            </Array>
            <mxPoint as="offset" />
          </mxGeometry>
        </mxCell>
        <mxCell id="CmoEx9Rfht6jRH0gk-lO-85" value="Tạo thẻ mượn mới" style="verticalAlign=bottom;endArrow=block;shadow=0;strokeWidth=1;" parent="1" edge="1">
          <mxGeometry relative="1" as="geometry">
            <mxPoint x="235" y="1580" as="sourcePoint" />
            <mxPoint x="355" y="1580" as="targetPoint" />
            <Array as="points">
              <mxPoint x="295" y="1580.18" />
              <mxPoint x="305" y="1580.18" />
            </Array>
          </mxGeometry>
        </mxCell>
        <mxCell id="CmoEx9Rfht6jRH0gk-lO-93" value=":Form trả sách" style="shape=umlLifeline;perimeter=lifelinePerimeter;container=1;collapsible=0;recursiveResize=0;rounded=0;shadow=0;strokeWidth=1;" parent="1" vertex="1">
          <mxGeometry x="172.5" y="1840" width="100" height="560" as="geometry" />
        </mxCell>
        <mxCell id="CmoEx9Rfht6jRH0gk-lO-94" value="" style="points=[];perimeter=orthogonalPerimeter;rounded=0;shadow=0;strokeWidth=1;fillColor=#ffe6cc;strokeColor=#d79b00;" parent="CmoEx9Rfht6jRH0gk-lO-93" vertex="1">
          <mxGeometry x="45" y="90" width="10" height="440" as="geometry" />
        </mxCell>
        <mxCell id="CmoEx9Rfht6jRH0gk-lO-95" value="Nhập thông tin thẻ mượn" style="verticalAlign=bottom;endArrow=open;dashed=1;endSize=8;shadow=0;strokeWidth=1;" parent="CmoEx9Rfht6jRH0gk-lO-93" edge="1">
          <mxGeometry x="-0.008" y="30" relative="1" as="geometry">
            <mxPoint x="-83" y="110" as="targetPoint" />
            <mxPoint x="42" y="110" as="sourcePoint" />
            <Array as="points">
              <mxPoint x="27" y="110" />
            </Array>
            <mxPoint as="offset" />
          </mxGeometry>
        </mxCell>
        <mxCell id="CmoEx9Rfht6jRH0gk-lO-121" value="Trả sách" style="verticalAlign=bottom;endArrow=open;dashed=1;endSize=8;shadow=0;strokeWidth=1;" parent="CmoEx9Rfht6jRH0gk-lO-93" edge="1">
          <mxGeometry x="-0.008" relative="1" as="geometry">
            <mxPoint x="45" y="360" as="targetPoint" />
            <mxPoint x="-84.97619047619037" y="360" as="sourcePoint" />
            <Array as="points">
              <mxPoint x="27" y="360" />
            </Array>
            <mxPoint as="offset" />
          </mxGeometry>
        </mxCell>
        <mxCell id="CmoEx9Rfht6jRH0gk-lO-122" value="Yêu cầu trả sách" style="verticalAlign=bottom;endArrow=block;shadow=0;strokeWidth=1;" parent="CmoEx9Rfht6jRH0gk-lO-93" edge="1">
          <mxGeometry relative="1" as="geometry">
            <mxPoint x="40" y="320" as="sourcePoint" />
            <mxPoint x="-80" y="320" as="targetPoint" />
            <Array as="points" />
          </mxGeometry>
        </mxCell>
        <mxCell id="CmoEx9Rfht6jRH0gk-lO-97" value=":DK Trả sách" style="shape=umlLifeline;perimeter=lifelinePerimeter;container=1;collapsible=0;recursiveResize=0;rounded=0;shadow=0;strokeWidth=1;" parent="1" vertex="1">
          <mxGeometry x="302.5" y="1840" width="100" height="560" as="geometry" />
        </mxCell>
        <mxCell id="CmoEx9Rfht6jRH0gk-lO-98" value="" style="points=[];perimeter=orthogonalPerimeter;rounded=0;shadow=0;strokeWidth=1;fillColor=#ffe6cc;strokeColor=#d79b00;" parent="CmoEx9Rfht6jRH0gk-lO-97" vertex="1">
          <mxGeometry x="45" y="150" width="10" height="160" as="geometry" />
        </mxCell>
        <mxCell id="CmoEx9Rfht6jRH0gk-lO-99" value="" style="points=[];perimeter=orthogonalPerimeter;rounded=0;shadow=0;strokeWidth=1;fillColor=#ffe6cc;strokeColor=#d79b00;" parent="CmoEx9Rfht6jRH0gk-lO-97" vertex="1">
          <mxGeometry x="45" y="400" width="10" height="110" as="geometry" />
        </mxCell>
        <mxCell id="CmoEx9Rfht6jRH0gk-lO-100" value="Yêu cầu xác nhận &#xa;thông tin" style="verticalAlign=bottom;endArrow=block;shadow=0;strokeWidth=1;" parent="CmoEx9Rfht6jRH0gk-lO-97" edge="1">
          <mxGeometry relative="1" as="geometry">
            <mxPoint x="-75" y="150" as="sourcePoint" />
            <mxPoint x="45" y="150" as="targetPoint" />
            <Array as="points">
              <mxPoint x="-15" y="150.18" />
              <mxPoint x="-5" y="150.18" />
            </Array>
          </mxGeometry>
        </mxCell>
        <mxCell id="CmoEx9Rfht6jRH0gk-lO-101" value="" style="verticalAlign=bottom;endArrow=open;dashed=1;endSize=8;shadow=0;strokeWidth=1;" parent="CmoEx9Rfht6jRH0gk-lO-97" edge="1">
          <mxGeometry x="-0.008" relative="1" as="geometry">
            <mxPoint x="-70.00000000000011" y="500" as="targetPoint" />
            <mxPoint x="40" y="500.24" as="sourcePoint" />
            <Array as="points">
              <mxPoint x="35" y="500" />
            </Array>
            <mxPoint as="offset" />
          </mxGeometry>
        </mxCell>
        <mxCell id="CmoEx9Rfht6jRH0gk-lO-103" value=":TT Độc giả" style="shape=umlLifeline;perimeter=lifelinePerimeter;container=1;collapsible=0;recursiveResize=0;rounded=0;shadow=0;strokeWidth=1;" parent="1" vertex="1">
          <mxGeometry x="442.5" y="1840" width="100" height="560" as="geometry" />
        </mxCell>
        <mxCell id="CmoEx9Rfht6jRH0gk-lO-104" value="" style="points=[];perimeter=orthogonalPerimeter;rounded=0;shadow=0;strokeWidth=1;fillColor=#ffe6cc;strokeColor=#d79b00;" parent="CmoEx9Rfht6jRH0gk-lO-103" vertex="1">
          <mxGeometry x="45" y="170" width="10" height="40" as="geometry" />
        </mxCell>
        <mxCell id="CmoEx9Rfht6jRH0gk-lO-105" value="Xác nhận bạn đọc" style="verticalAlign=bottom;endArrow=block;shadow=0;strokeWidth=1;" parent="CmoEx9Rfht6jRH0gk-lO-103" edge="1">
          <mxGeometry relative="1" as="geometry">
            <mxPoint x="-80" y="170" as="sourcePoint" />
            <mxPoint x="40" y="170" as="targetPoint" />
            <Array as="points">
              <mxPoint x="-20" y="170.18" />
              <mxPoint x="-10" y="170.18" />
            </Array>
          </mxGeometry>
        </mxCell>
        <mxCell id="CmoEx9Rfht6jRH0gk-lO-106" value="Xác thực thẻ mượn" style="verticalAlign=bottom;endArrow=block;shadow=0;strokeWidth=1;entryX=-0.305;entryY=-0.003;entryDx=0;entryDy=0;entryPerimeter=0;" parent="CmoEx9Rfht6jRH0gk-lO-103" target="CmoEx9Rfht6jRH0gk-lO-115" edge="1">
          <mxGeometry relative="1" as="geometry">
            <mxPoint x="-85" y="240" as="sourcePoint" />
            <mxPoint x="184.5" y="240.18" as="targetPoint" />
            <Array as="points">
              <mxPoint x="-25" y="240.18" />
              <mxPoint x="-15" y="240.18" />
            </Array>
          </mxGeometry>
        </mxCell>
        <mxCell id="CmoEx9Rfht6jRH0gk-lO-107" value="Xác nhận đúng thẻ mượn" style="verticalAlign=bottom;endArrow=open;dashed=1;endSize=8;shadow=0;strokeWidth=1;exitX=0;exitY=0.754;exitDx=0;exitDy=0;exitPerimeter=0;" parent="CmoEx9Rfht6jRH0gk-lO-103" source="CmoEx9Rfht6jRH0gk-lO-115" edge="1">
          <mxGeometry x="-0.0006" relative="1" as="geometry">
            <mxPoint x="-80" y="270" as="targetPoint" />
            <mxPoint x="45" y="260" as="sourcePoint" />
            <Array as="points">
              <mxPoint x="140" y="270" />
            </Array>
            <mxPoint as="offset" />
          </mxGeometry>
        </mxCell>
        <mxCell id="CmoEx9Rfht6jRH0gk-lO-108" value="Xóa thẻ mượn trong CSDL" style="verticalAlign=bottom;endArrow=block;shadow=0;strokeWidth=1;" parent="CmoEx9Rfht6jRH0gk-lO-103" edge="1">
          <mxGeometry x="0.0405" relative="1" as="geometry">
            <mxPoint x="-85" y="420" as="sourcePoint" />
            <mxPoint x="174.5" y="420" as="targetPoint" />
            <Array as="points" />
            <mxPoint as="offset" />
          </mxGeometry>
        </mxCell>
        <mxCell id="CmoEx9Rfht6jRH0gk-lO-109" value="" style="verticalAlign=bottom;endArrow=open;dashed=1;endSize=8;shadow=0;strokeWidth=1;exitX=0;exitY=0.754;exitDx=0;exitDy=0;exitPerimeter=0;" parent="CmoEx9Rfht6jRH0gk-lO-103" edge="1">
          <mxGeometry x="-0.0006" relative="1" as="geometry">
            <mxPoint x="-84.5" y="445" as="targetPoint" />
            <mxPoint x="180.5" y="445.15999999999985" as="sourcePoint" />
            <Array as="points">
              <mxPoint x="135.5" y="445" />
            </Array>
            <mxPoint as="offset" />
          </mxGeometry>
        </mxCell>
        <mxCell id="CmoEx9Rfht6jRH0gk-lO-110" value="" style="verticalAlign=bottom;endArrow=open;dashed=1;endSize=8;shadow=0;strokeWidth=1;" parent="CmoEx9Rfht6jRH0gk-lO-103" source="CmoEx9Rfht6jRH0gk-lO-111" edge="1">
          <mxGeometry y="20" relative="1" as="geometry">
            <mxPoint x="-82.5" y="490" as="targetPoint" />
            <mxPoint x="182.5" y="490.15999999999985" as="sourcePoint" />
            <Array as="points">
              <mxPoint x="137.5" y="490" />
            </Array>
            <mxPoint as="offset" />
          </mxGeometry>
        </mxCell>
        <mxCell id="CmoEx9Rfht6jRH0gk-lO-111" value=":Sách" style="shape=umlLifeline;perimeter=lifelinePerimeter;container=1;collapsible=0;recursiveResize=0;rounded=0;shadow=0;strokeWidth=1;" parent="1" vertex="1">
          <mxGeometry x="705" y="1840" width="100" height="560" as="geometry" />
        </mxCell>
        <mxCell id="CmoEx9Rfht6jRH0gk-lO-112" value="" style="points=[];perimeter=orthogonalPerimeter;rounded=0;shadow=0;strokeWidth=1;fillColor=#ffe6cc;strokeColor=#d79b00;" parent="CmoEx9Rfht6jRH0gk-lO-111" vertex="1">
          <mxGeometry x="45" y="470" width="10" height="30" as="geometry" />
        </mxCell>
        <mxCell id="CmoEx9Rfht6jRH0gk-lO-113" value=":Thẻ mượn" style="shape=umlLifeline;perimeter=lifelinePerimeter;container=1;collapsible=0;recursiveResize=0;rounded=0;shadow=0;strokeWidth=1;" parent="1" vertex="1">
          <mxGeometry x="570" y="1840" width="100" height="560" as="geometry" />
        </mxCell>
        <mxCell id="CmoEx9Rfht6jRH0gk-lO-114" value="" style="points=[];perimeter=orthogonalPerimeter;rounded=0;shadow=0;strokeWidth=1;fillColor=#ffe6cc;strokeColor=#d79b00;" parent="CmoEx9Rfht6jRH0gk-lO-113" vertex="1">
          <mxGeometry x="45" y="420" width="10" height="40" as="geometry" />
        </mxCell>
        <mxCell id="CmoEx9Rfht6jRH0gk-lO-115" value="" style="points=[];perimeter=orthogonalPerimeter;rounded=0;shadow=0;strokeWidth=1;fillColor=#ffe6cc;strokeColor=#d79b00;" parent="CmoEx9Rfht6jRH0gk-lO-113" vertex="1">
          <mxGeometry x="45" y="240" width="10" height="40" as="geometry" />
        </mxCell>
        <mxCell id="CmoEx9Rfht6jRH0gk-lO-116" value="Gửi yêu cầu mượn" style="verticalAlign=bottom;endArrow=block;shadow=0;strokeWidth=1;" parent="1" edge="1">
          <mxGeometry relative="1" as="geometry">
            <mxPoint x="92.5" y="1930" as="sourcePoint" />
            <mxPoint x="217.5" y="1930" as="targetPoint" />
            <Array as="points">
              <mxPoint x="152.5" y="1930.18" />
              <mxPoint x="162.5" y="1930.18" />
            </Array>
          </mxGeometry>
        </mxCell>
        <mxCell id="CmoEx9Rfht6jRH0gk-lO-117" value="" style="verticalAlign=bottom;endArrow=block;shadow=0;strokeWidth=1;" parent="1" edge="1">
          <mxGeometry x="-0.04" y="-50" relative="1" as="geometry">
            <mxPoint x="92.5" y="1980" as="sourcePoint" />
            <mxPoint x="217.5" y="1980" as="targetPoint" />
            <Array as="points">
              <mxPoint x="152.5" y="1980.18" />
              <mxPoint x="162.5" y="1980.18" />
            </Array>
            <mxPoint as="offset" />
          </mxGeometry>
        </mxCell>
        <mxCell id="CmoEx9Rfht6jRH0gk-lO-118" value="Xác nhận thành công" style="verticalAlign=bottom;endArrow=open;dashed=1;endSize=8;shadow=0;strokeWidth=1;" parent="1" edge="1">
          <mxGeometry x="-0.12" relative="1" as="geometry">
            <mxPoint x="362.5" y="2040" as="targetPoint" />
            <mxPoint x="487.5" y="2040" as="sourcePoint" />
            <Array as="points">
              <mxPoint x="467.5" y="2040" />
            </Array>
            <mxPoint as="offset" />
          </mxGeometry>
        </mxCell>
        <mxCell id="CmoEx9Rfht6jRH0gk-lO-119" value="Xác nhận thông tin đúng" style="verticalAlign=bottom;endArrow=open;dashed=1;endSize=8;shadow=0;strokeWidth=1;" parent="1" edge="1">
          <mxGeometry x="-0.0006" relative="1" as="geometry">
            <mxPoint x="229.5" y="2130" as="targetPoint" />
            <mxPoint x="344.5" y="2130" as="sourcePoint" />
            <Array as="points">
              <mxPoint x="324.5" y="2130" />
            </Array>
            <mxPoint as="offset" />
          </mxGeometry>
        </mxCell>
        <mxCell id="CmoEx9Rfht6jRH0gk-lO-123" value="Cập nhật lại số lượng sách" style="verticalAlign=bottom;endArrow=block;shadow=0;strokeWidth=1;entryX=-0.162;entryY=0.002;entryDx=0;entryDy=0;entryPerimeter=0;" parent="1" target="CmoEx9Rfht6jRH0gk-lO-112" edge="1">
          <mxGeometry x="-0.0476" relative="1" as="geometry">
            <mxPoint x="357.5" y="2310" as="sourcePoint" />
            <mxPoint x="732.5" y="2310" as="targetPoint" />
            <Array as="points">
              <mxPoint x="417.5" y="2310.1800000000003" />
              <mxPoint x="427.5" y="2310.1800000000003" />
            </Array>
            <mxPoint as="offset" />
          </mxGeometry>
        </mxCell>
        <mxCell id="CmoEx9Rfht6jRH0gk-lO-124" value="" style="verticalAlign=bottom;endArrow=open;dashed=1;endSize=8;shadow=0;strokeWidth=1;" parent="1" edge="1">
          <mxGeometry x="-0.008" relative="1" as="geometry">
            <mxPoint x="92.5" y="2359.31" as="targetPoint" />
            <mxPoint x="217.5" y="2359.31" as="sourcePoint" />
            <Array as="points">
              <mxPoint x="197.5" y="2359.31" />
            </Array>
            <mxPoint as="offset" />
          </mxGeometry>
        </mxCell>
        <mxCell id="CmoEx9Rfht6jRH0gk-lO-125" value=":Thủ thư" style="shape=umlLifeline;perimeter=lifelinePerimeter;container=1;collapsible=0;recursiveResize=0;rounded=0;shadow=0;strokeWidth=1;" parent="1" vertex="1">
          <mxGeometry x="80" y="2640" width="100" height="560" as="geometry" />
        </mxCell>
        <mxCell id="CmoEx9Rfht6jRH0gk-lO-126" value="" style="points=[];perimeter=orthogonalPerimeter;rounded=0;shadow=0;strokeWidth=1;fillColor=#ffe6cc;strokeColor=#d79b00;" parent="CmoEx9Rfht6jRH0gk-lO-125" vertex="1">
          <mxGeometry x="45" y="70" width="10" height="470" as="geometry" />
        </mxCell>
        <mxCell id="CmoEx9Rfht6jRH0gk-lO-142" value="Chọn thống kê ds sách&#xa;quá hạn" style="verticalAlign=bottom;endArrow=block;shadow=0;strokeWidth=1;" parent="1" source="CmoEx9Rfht6jRH0gk-lO-126" target="CmoEx9Rfht6jRH0gk-lO-128" edge="1">
          <mxGeometry relative="1" as="geometry">
            <mxPoint x="140" y="2920" as="sourcePoint" />
            <mxPoint x="305" y="2840" as="targetPoint" />
            <Array as="points">
              <mxPoint x="220" y="2920" />
              <mxPoint x="250" y="2920" />
              <mxPoint x="260" y="2920" />
              <mxPoint x="290" y="2920" />
            </Array>
          </mxGeometry>
        </mxCell>
        <mxCell id="CmoEx9Rfht6jRH0gk-lO-141" value="Chọn thống kê sách mượn&#xa;theo tháng" style="verticalAlign=bottom;endArrow=block;shadow=0;strokeWidth=1;" parent="1" edge="1">
          <mxGeometry relative="1" as="geometry">
            <mxPoint x="138" y="2800" as="sourcePoint" />
            <mxPoint x="303" y="2800" as="targetPoint" />
            <Array as="points">
              <mxPoint x="223" y="2800" />
              <mxPoint x="273" y="2800" />
            </Array>
          </mxGeometry>
        </mxCell>
        <mxCell id="CmoEx9Rfht6jRH0gk-lO-131" value="Chọn chức năng thống kê sách" style="verticalAlign=bottom;endArrow=block;entryX=0.1;entryY=0.041;shadow=0;strokeWidth=1;entryDx=0;entryDy=0;entryPerimeter=0;" parent="1" edge="1">
          <mxGeometry relative="1" as="geometry">
            <mxPoint x="140" y="2729" as="sourcePoint" />
            <mxPoint x="303" y="2729.27" as="targetPoint" />
          </mxGeometry>
        </mxCell>
        <mxCell id="CmoEx9Rfht6jRH0gk-lO-127" value=":Form thống kê sách" style="shape=umlLifeline;perimeter=lifelinePerimeter;container=1;collapsible=0;recursiveResize=0;rounded=0;shadow=0;strokeWidth=1;" parent="1" vertex="1">
          <mxGeometry x="250" y="2640" width="120" height="560" as="geometry" />
        </mxCell>
        <mxCell id="CmoEx9Rfht6jRH0gk-lO-128" value="" style="points=[];perimeter=orthogonalPerimeter;rounded=0;shadow=0;strokeWidth=1;fillColor=#ffe6cc;strokeColor=#d79b00;" parent="CmoEx9Rfht6jRH0gk-lO-127" vertex="1">
          <mxGeometry x="55" y="70" width="10" height="470" as="geometry" />
        </mxCell>
        <mxCell id="CmoEx9Rfht6jRH0gk-lO-156" value="Hiển thị" style="verticalAlign=bottom;endArrow=block;shadow=0;strokeWidth=1;" parent="CmoEx9Rfht6jRH0gk-lO-127" edge="1">
          <mxGeometry x="-0.1905" y="10" relative="1" as="geometry">
            <mxPoint x="65" y="300" as="sourcePoint" />
            <mxPoint x="65" y="330" as="targetPoint" />
            <Array as="points">
              <mxPoint x="125" y="300" />
              <mxPoint x="125" y="330" />
            </Array>
            <mxPoint as="offset" />
          </mxGeometry>
        </mxCell>
        <mxCell id="CmoEx9Rfht6jRH0gk-lO-134" value=":DK Thống kê sách" style="shape=umlLifeline;perimeter=lifelinePerimeter;container=1;collapsible=0;recursiveResize=0;rounded=0;shadow=0;strokeWidth=1;" parent="1" vertex="1">
          <mxGeometry x="420" y="2640" width="110" height="560" as="geometry" />
        </mxCell>
        <mxCell id="CmoEx9Rfht6jRH0gk-lO-135" value="" style="points=[];perimeter=orthogonalPerimeter;rounded=0;shadow=0;strokeWidth=1;fillColor=#ffe6cc;strokeColor=#d79b00;" parent="CmoEx9Rfht6jRH0gk-lO-134" vertex="1">
          <mxGeometry x="50" y="180" width="10" height="90" as="geometry" />
        </mxCell>
        <mxCell id="CmoEx9Rfht6jRH0gk-lO-136" value="" style="points=[];perimeter=orthogonalPerimeter;rounded=0;shadow=0;strokeWidth=1;fillColor=#fff2cc;strokeColor=#d6b656;" parent="CmoEx9Rfht6jRH0gk-lO-134" vertex="1">
          <mxGeometry x="50" y="380" width="10" height="80" as="geometry" />
        </mxCell>
        <mxCell id="CmoEx9Rfht6jRH0gk-lO-151" value="Yêu cầu đưa ra ds sách mượn &#xa;theo tháng" style="verticalAlign=bottom;endArrow=block;shadow=0;strokeWidth=1;" parent="CmoEx9Rfht6jRH0gk-lO-134" edge="1">
          <mxGeometry relative="1" as="geometry">
            <mxPoint x="-105" y="180.42000000000007" as="sourcePoint" />
            <mxPoint x="50" y="180" as="targetPoint" />
            <Array as="points">
              <mxPoint x="-25" y="180" />
              <mxPoint x="35" y="180" />
            </Array>
          </mxGeometry>
        </mxCell>
        <mxCell id="CmoEx9Rfht6jRH0gk-lO-137" value=":Thẻ mượn" style="shape=umlLifeline;perimeter=lifelinePerimeter;container=1;collapsible=0;recursiveResize=0;rounded=0;shadow=0;strokeWidth=1;" parent="1" vertex="1">
          <mxGeometry x="590" y="2640" width="100" height="560" as="geometry" />
        </mxCell>
        <mxCell id="CmoEx9Rfht6jRH0gk-lO-138" value="" style="points=[];perimeter=orthogonalPerimeter;rounded=0;shadow=0;strokeWidth=1;fillColor=#ffe6cc;strokeColor=#d79b00;" parent="CmoEx9Rfht6jRH0gk-lO-137" vertex="1">
          <mxGeometry x="45" y="195" width="10" height="50" as="geometry" />
        </mxCell>
        <mxCell id="CmoEx9Rfht6jRH0gk-lO-139" value="" style="points=[];perimeter=orthogonalPerimeter;rounded=0;shadow=0;strokeWidth=1;fillColor=#ffe6cc;strokeColor=#d79b00;" parent="CmoEx9Rfht6jRH0gk-lO-137" vertex="1">
          <mxGeometry x="45" y="396" width="10" height="50" as="geometry" />
        </mxCell>
        <mxCell id="CmoEx9Rfht6jRH0gk-lO-145" value="Trả về ds sách quá hạn" style="verticalAlign=bottom;endArrow=open;dashed=1;endSize=8;shadow=0;strokeWidth=1;exitX=-0.026;exitY=0.856;exitDx=0;exitDy=0;exitPerimeter=0;" parent="1" edge="1">
          <mxGeometry x="-0.0685" relative="1" as="geometry">
            <mxPoint x="480" y="3080.08" as="targetPoint" />
            <mxPoint x="629.74" y="3080" as="sourcePoint" />
            <Array as="points">
              <mxPoint x="585" y="3080.08" />
            </Array>
            <mxPoint as="offset" />
          </mxGeometry>
        </mxCell>
        <mxCell id="CmoEx9Rfht6jRH0gk-lO-147" value="Truy vấn ds sách quá hạn " style="verticalAlign=bottom;endArrow=block;shadow=0;strokeWidth=1;" parent="1" edge="1">
          <mxGeometry relative="1" as="geometry">
            <mxPoint x="480" y="3040.1800000000003" as="sourcePoint" />
            <mxPoint x="630" y="3040" as="targetPoint" />
            <Array as="points">
              <mxPoint x="565" y="3040.1800000000003" />
              <mxPoint x="575" y="3040.1800000000003" />
            </Array>
          </mxGeometry>
        </mxCell>
        <mxCell id="CmoEx9Rfht6jRH0gk-lO-148" value="Truy vấn ds sách mượn &#xa;theo tháng" style="verticalAlign=bottom;endArrow=block;shadow=0;strokeWidth=1;" parent="1" edge="1">
          <mxGeometry relative="1" as="geometry">
            <mxPoint x="483" y="2840.1800000000003" as="sourcePoint" />
            <mxPoint x="633" y="2840" as="targetPoint" />
            <Array as="points">
              <mxPoint x="568" y="2840.1800000000003" />
              <mxPoint x="578" y="2840.1800000000003" />
            </Array>
          </mxGeometry>
        </mxCell>
        <mxCell id="CmoEx9Rfht6jRH0gk-lO-152" value="Trả về ds sách mượn&#xa;theo tháng" style="verticalAlign=bottom;endArrow=open;dashed=1;endSize=8;shadow=0;strokeWidth=1;exitX=-0.026;exitY=0.856;exitDx=0;exitDy=0;exitPerimeter=0;" parent="1" edge="1">
          <mxGeometry x="-0.0685" relative="1" as="geometry">
            <mxPoint x="319.9999999999998" y="2900.08" as="targetPoint" />
            <mxPoint x="469.7399999999998" y="2900" as="sourcePoint" />
            <Array as="points">
              <mxPoint x="425" y="2900.08" />
            </Array>
            <mxPoint as="offset" />
          </mxGeometry>
        </mxCell>
        <mxCell id="CmoEx9Rfht6jRH0gk-lO-150" value="Hiển thị form &#xa;thống kê sách" style="verticalAlign=bottom;endArrow=block;shadow=0;strokeWidth=1;" parent="1" edge="1">
          <mxGeometry x="-0.1905" y="10" relative="1" as="geometry">
            <mxPoint x="315" y="2740" as="sourcePoint" />
            <mxPoint x="315" y="2770" as="targetPoint" />
            <Array as="points">
              <mxPoint x="375" y="2740" />
              <mxPoint x="375" y="2770" />
            </Array>
            <mxPoint as="offset" />
          </mxGeometry>
        </mxCell>
        <mxCell id="CmoEx9Rfht6jRH0gk-lO-154" value="Trả về kết quả ds sách mượn&#xa;theo tháng" style="verticalAlign=bottom;endArrow=open;dashed=1;endSize=8;shadow=0;strokeWidth=1;exitX=-0.026;exitY=0.856;exitDx=0;exitDy=0;exitPerimeter=0;" parent="1" edge="1">
          <mxGeometry x="-0.0685" relative="1" as="geometry">
            <mxPoint x="479.9999999999998" y="2880.08" as="targetPoint" />
            <mxPoint x="629.7399999999998" y="2880" as="sourcePoint" />
            <Array as="points">
              <mxPoint x="585" y="2880.08" />
            </Array>
            <mxPoint as="offset" />
          </mxGeometry>
        </mxCell>
        <mxCell id="CmoEx9Rfht6jRH0gk-lO-158" value="Yêu cầu thống kê ds sách &#xa;quá hạn" style="verticalAlign=bottom;endArrow=block;shadow=0;strokeWidth=1;" parent="1" edge="1">
          <mxGeometry relative="1" as="geometry">
            <mxPoint x="320" y="3020.42" as="sourcePoint" />
            <mxPoint x="470" y="3020" as="targetPoint" />
            <Array as="points">
              <mxPoint x="400" y="3020" />
              <mxPoint x="460" y="3020" />
            </Array>
          </mxGeometry>
        </mxCell>
        <mxCell id="CmoEx9Rfht6jRH0gk-lO-159" value="Trả về ds sách quá hạn" style="verticalAlign=bottom;endArrow=open;dashed=1;endSize=8;shadow=0;strokeWidth=1;exitX=-0.026;exitY=0.856;exitDx=0;exitDy=0;exitPerimeter=0;" parent="1" edge="1">
          <mxGeometry x="-0.0685" relative="1" as="geometry">
            <mxPoint x="320" y="3090.08" as="targetPoint" />
            <mxPoint x="469.74" y="3090" as="sourcePoint" />
            <Array as="points">
              <mxPoint x="425" y="3090.08" />
            </Array>
            <mxPoint as="offset" />
          </mxGeometry>
        </mxCell>
        <mxCell id="CmoEx9Rfht6jRH0gk-lO-157" value="Hiển thị" style="verticalAlign=bottom;endArrow=block;shadow=0;strokeWidth=1;" parent="1" edge="1">
          <mxGeometry x="-0.1905" y="10" relative="1" as="geometry">
            <mxPoint x="315" y="3120" as="sourcePoint" />
            <mxPoint x="315" y="3150" as="targetPoint" />
            <Array as="points">
              <mxPoint x="375" y="3120" />
              <mxPoint x="375" y="3150" />
            </Array>
            <mxPoint as="offset" />
          </mxGeometry>
        </mxCell>
        <mxCell id="CmoEx9Rfht6jRH0gk-lO-160" value=":Thủ thư" style="shape=umlLifeline;perimeter=lifelinePerimeter;container=1;collapsible=0;recursiveResize=0;rounded=0;shadow=0;strokeWidth=1;" parent="1" vertex="1">
          <mxGeometry x="120" y="3360" width="100" height="560" as="geometry" />
        </mxCell>
        <mxCell id="CmoEx9Rfht6jRH0gk-lO-161" value="" style="points=[];perimeter=orthogonalPerimeter;rounded=0;shadow=0;strokeWidth=1;fillColor=#ffe6cc;strokeColor=#d79b00;" parent="CmoEx9Rfht6jRH0gk-lO-160" vertex="1">
          <mxGeometry x="45" y="70" width="10" height="470" as="geometry" />
        </mxCell>
        <mxCell id="CmoEx9Rfht6jRH0gk-lO-162" value="Chọn thống kê danh sách&#xa;bạn đọc quá hạn" style="verticalAlign=bottom;endArrow=block;shadow=0;strokeWidth=1;" parent="1" source="CmoEx9Rfht6jRH0gk-lO-161" target="CmoEx9Rfht6jRH0gk-lO-166" edge="1">
          <mxGeometry relative="1" as="geometry">
            <mxPoint x="180" y="3640" as="sourcePoint" />
            <mxPoint x="345" y="3560" as="targetPoint" />
            <Array as="points">
              <mxPoint x="260" y="3640" />
              <mxPoint x="290" y="3640" />
              <mxPoint x="300" y="3640" />
              <mxPoint x="330" y="3640" />
            </Array>
          </mxGeometry>
        </mxCell>
        <mxCell id="CmoEx9Rfht6jRH0gk-lO-163" value="Chọn thống kê danh sách&#xa;bạn đọc" style="verticalAlign=bottom;endArrow=block;shadow=0;strokeWidth=1;" parent="1" edge="1">
          <mxGeometry relative="1" as="geometry">
            <mxPoint x="178" y="3520" as="sourcePoint" />
            <mxPoint x="343" y="3520" as="targetPoint" />
            <Array as="points">
              <mxPoint x="263" y="3520" />
              <mxPoint x="313" y="3520" />
            </Array>
          </mxGeometry>
        </mxCell>
        <mxCell id="CmoEx9Rfht6jRH0gk-lO-164" value="Chọn chức năng thống kê &#xa;bạn đọc" style="verticalAlign=bottom;endArrow=block;entryX=0.1;entryY=0.041;shadow=0;strokeWidth=1;entryDx=0;entryDy=0;entryPerimeter=0;" parent="1" edge="1">
          <mxGeometry relative="1" as="geometry">
            <mxPoint x="179.99999999999977" y="3448.9999999999995" as="sourcePoint" />
            <mxPoint x="343" y="3449.27" as="targetPoint" />
          </mxGeometry>
        </mxCell>
        <mxCell id="CmoEx9Rfht6jRH0gk-lO-165" value=":Form thống kê &#xa;bạn đọc" style="shape=umlLifeline;perimeter=lifelinePerimeter;container=1;collapsible=0;recursiveResize=0;rounded=0;shadow=0;strokeWidth=1;" parent="1" vertex="1">
          <mxGeometry x="290" y="3360" width="120" height="560" as="geometry" />
        </mxCell>
        <mxCell id="CmoEx9Rfht6jRH0gk-lO-166" value="" style="points=[];perimeter=orthogonalPerimeter;rounded=0;shadow=0;strokeWidth=1;fillColor=#ffe6cc;strokeColor=#d79b00;" parent="CmoEx9Rfht6jRH0gk-lO-165" vertex="1">
          <mxGeometry x="55" y="70" width="10" height="470" as="geometry" />
        </mxCell>
        <mxCell id="CmoEx9Rfht6jRH0gk-lO-167" value="Hiển thị" style="verticalAlign=bottom;endArrow=block;shadow=0;strokeWidth=1;" parent="CmoEx9Rfht6jRH0gk-lO-165" edge="1">
          <mxGeometry x="-0.1905" y="10" relative="1" as="geometry">
            <mxPoint x="65" y="300" as="sourcePoint" />
            <mxPoint x="65" y="330" as="targetPoint" />
            <Array as="points">
              <mxPoint x="125" y="300" />
              <mxPoint x="125" y="330" />
            </Array>
            <mxPoint as="offset" />
          </mxGeometry>
        </mxCell>
        <mxCell id="CmoEx9Rfht6jRH0gk-lO-183" value="Hiển thị" style="verticalAlign=bottom;endArrow=block;shadow=0;strokeWidth=1;" parent="CmoEx9Rfht6jRH0gk-lO-165" edge="1">
          <mxGeometry x="-0.1905" y="10" relative="1" as="geometry">
            <mxPoint x="64.99999999999977" y="490" as="sourcePoint" />
            <mxPoint x="64.99999999999977" y="520" as="targetPoint" />
            <Array as="points">
              <mxPoint x="125" y="490" />
              <mxPoint x="125" y="520" />
            </Array>
            <mxPoint as="offset" />
          </mxGeometry>
        </mxCell>
        <mxCell id="CmoEx9Rfht6jRH0gk-lO-168" value=":DK Thống kê &#xa;bạn đọc" style="shape=umlLifeline;perimeter=lifelinePerimeter;container=1;collapsible=0;recursiveResize=0;rounded=0;shadow=0;strokeWidth=1;" parent="1" vertex="1">
          <mxGeometry x="460" y="3360" width="110" height="560" as="geometry" />
        </mxCell>
        <mxCell id="CmoEx9Rfht6jRH0gk-lO-169" value="" style="points=[];perimeter=orthogonalPerimeter;rounded=0;shadow=0;strokeWidth=1;fillColor=#ffe6cc;strokeColor=#d79b00;" parent="CmoEx9Rfht6jRH0gk-lO-168" vertex="1">
          <mxGeometry x="50" y="180" width="10" height="90" as="geometry" />
        </mxCell>
        <mxCell id="CmoEx9Rfht6jRH0gk-lO-170" value="" style="points=[];perimeter=orthogonalPerimeter;rounded=0;shadow=0;strokeWidth=1;fillColor=#fff2cc;strokeColor=#d6b656;" parent="CmoEx9Rfht6jRH0gk-lO-168" vertex="1">
          <mxGeometry x="50" y="380" width="10" height="80" as="geometry" />
        </mxCell>
        <mxCell id="CmoEx9Rfht6jRH0gk-lO-171" value="Yêu cầu đưa ra danh sách&#xa;bạn đọc" style="verticalAlign=bottom;endArrow=block;shadow=0;strokeWidth=1;" parent="CmoEx9Rfht6jRH0gk-lO-168" edge="1">
          <mxGeometry relative="1" as="geometry">
            <mxPoint x="-105" y="180.42000000000007" as="sourcePoint" />
            <mxPoint x="50" y="180" as="targetPoint" />
            <Array as="points">
              <mxPoint x="-25" y="180" />
              <mxPoint x="35" y="180" />
            </Array>
          </mxGeometry>
        </mxCell>
        <mxCell id="CmoEx9Rfht6jRH0gk-lO-172" value=":Thẻ mượn" style="shape=umlLifeline;perimeter=lifelinePerimeter;container=1;collapsible=0;recursiveResize=0;rounded=0;shadow=0;strokeWidth=1;" parent="1" vertex="1">
          <mxGeometry x="630" y="3360" width="100" height="560" as="geometry" />
        </mxCell>
        <mxCell id="CmoEx9Rfht6jRH0gk-lO-173" value="" style="points=[];perimeter=orthogonalPerimeter;rounded=0;shadow=0;strokeWidth=1;fillColor=#ffe6cc;strokeColor=#d79b00;" parent="CmoEx9Rfht6jRH0gk-lO-172" vertex="1">
          <mxGeometry x="45" y="195" width="10" height="50" as="geometry" />
        </mxCell>
        <mxCell id="CmoEx9Rfht6jRH0gk-lO-174" value="" style="points=[];perimeter=orthogonalPerimeter;rounded=0;shadow=0;strokeWidth=1;fillColor=#ffe6cc;strokeColor=#d79b00;" parent="CmoEx9Rfht6jRH0gk-lO-172" vertex="1">
          <mxGeometry x="45" y="396" width="10" height="50" as="geometry" />
        </mxCell>
        <mxCell id="CmoEx9Rfht6jRH0gk-lO-175" value="Trả về danh sách &#xa;bạn đọc quá hạn" style="verticalAlign=bottom;endArrow=open;dashed=1;endSize=8;shadow=0;strokeWidth=1;exitX=-0.026;exitY=0.856;exitDx=0;exitDy=0;exitPerimeter=0;" parent="1" edge="1">
          <mxGeometry x="-0.0685" relative="1" as="geometry">
            <mxPoint x="519.9999999999998" y="3800.08" as="targetPoint" />
            <mxPoint x="669.7399999999998" y="3800" as="sourcePoint" />
            <Array as="points">
              <mxPoint x="625" y="3800.08" />
            </Array>
            <mxPoint as="offset" />
          </mxGeometry>
        </mxCell>
        <mxCell id="CmoEx9Rfht6jRH0gk-lO-176" value="Truy vấn thông tin bạn đọc&#xa;quá hạn " style="verticalAlign=bottom;endArrow=block;shadow=0;strokeWidth=1;" parent="1" edge="1">
          <mxGeometry relative="1" as="geometry">
            <mxPoint x="519.9999999999998" y="3760.1800000000003" as="sourcePoint" />
            <mxPoint x="670" y="3760" as="targetPoint" />
            <Array as="points">
              <mxPoint x="605" y="3760.1800000000003" />
              <mxPoint x="615" y="3760.1800000000003" />
            </Array>
          </mxGeometry>
        </mxCell>
        <mxCell id="CmoEx9Rfht6jRH0gk-lO-177" value="Truy vấn danh sách &#xa;bạn đọc" style="verticalAlign=bottom;endArrow=block;shadow=0;strokeWidth=1;" parent="1" edge="1">
          <mxGeometry relative="1" as="geometry">
            <mxPoint x="523" y="3560.1800000000003" as="sourcePoint" />
            <mxPoint x="673" y="3560" as="targetPoint" />
            <Array as="points">
              <mxPoint x="608" y="3560.1800000000003" />
              <mxPoint x="618" y="3560.1800000000003" />
            </Array>
          </mxGeometry>
        </mxCell>
        <mxCell id="CmoEx9Rfht6jRH0gk-lO-178" value="Trả về danh sách &#xa;bạn đọc" style="verticalAlign=bottom;endArrow=open;dashed=1;endSize=8;shadow=0;strokeWidth=1;exitX=-0.026;exitY=0.856;exitDx=0;exitDy=0;exitPerimeter=0;" parent="1" edge="1">
          <mxGeometry x="-0.0685" relative="1" as="geometry">
            <mxPoint x="359.9999999999998" y="3620.08" as="targetPoint" />
            <mxPoint x="509.7399999999998" y="3620" as="sourcePoint" />
            <Array as="points">
              <mxPoint x="465" y="3620.08" />
            </Array>
            <mxPoint as="offset" />
          </mxGeometry>
        </mxCell>
        <mxCell id="CmoEx9Rfht6jRH0gk-lO-179" value="Hiển thị form &#xa;thống kê bạn đọc" style="verticalAlign=bottom;endArrow=block;shadow=0;strokeWidth=1;" parent="1" edge="1">
          <mxGeometry x="-0.1905" y="10" relative="1" as="geometry">
            <mxPoint x="354.9999999999998" y="3460" as="sourcePoint" />
            <mxPoint x="354.9999999999998" y="3490" as="targetPoint" />
            <Array as="points">
              <mxPoint x="415" y="3460" />
              <mxPoint x="415" y="3490" />
            </Array>
            <mxPoint as="offset" />
          </mxGeometry>
        </mxCell>
        <mxCell id="CmoEx9Rfht6jRH0gk-lO-180" value="Trả về kết quả &#xa;danh sách bạn đọc" style="verticalAlign=bottom;endArrow=open;dashed=1;endSize=8;shadow=0;strokeWidth=1;exitX=-0.026;exitY=0.856;exitDx=0;exitDy=0;exitPerimeter=0;" parent="1" edge="1">
          <mxGeometry x="-0.0685" relative="1" as="geometry">
            <mxPoint x="519.9999999999998" y="3600.08" as="targetPoint" />
            <mxPoint x="669.7399999999998" y="3600" as="sourcePoint" />
            <Array as="points">
              <mxPoint x="625" y="3600.08" />
            </Array>
            <mxPoint as="offset" />
          </mxGeometry>
        </mxCell>
        <mxCell id="CmoEx9Rfht6jRH0gk-lO-181" value="Yêu cầu thống kê bạn đọc&#xa;quá hạn" style="verticalAlign=bottom;endArrow=block;shadow=0;strokeWidth=1;" parent="1" edge="1">
          <mxGeometry relative="1" as="geometry">
            <mxPoint x="359.9999999999998" y="3740.42" as="sourcePoint" />
            <mxPoint x="509.9999999999998" y="3740" as="targetPoint" />
            <Array as="points">
              <mxPoint x="440" y="3740" />
              <mxPoint x="500" y="3740" />
            </Array>
          </mxGeometry>
        </mxCell>
        <mxCell id="CmoEx9Rfht6jRH0gk-lO-182" value="Trả về danh sách&#xa;bạn đọc quá hạn" style="verticalAlign=bottom;endArrow=open;dashed=1;endSize=8;shadow=0;strokeWidth=1;exitX=-0.026;exitY=0.856;exitDx=0;exitDy=0;exitPerimeter=0;" parent="1" edge="1">
          <mxGeometry x="-0.0685" relative="1" as="geometry">
            <mxPoint x="359.9999999999998" y="3810.08" as="targetPoint" />
            <mxPoint x="509.7399999999998" y="3810" as="sourcePoint" />
            <Array as="points">
              <mxPoint x="465" y="3810.08" />
            </Array>
            <mxPoint as="offset" />
          </mxGeometry>
        </mxCell>
        <mxCell id="CmoEx9Rfht6jRH0gk-lO-88" value="" style="points=[];perimeter=orthogonalPerimeter;rounded=0;shadow=0;strokeWidth=1;fillColor=#ffe6cc;strokeColor=#d79b00;" parent="1" vertex="1">
          <mxGeometry x="77.5" y="1920" width="10" height="450" as="geometry" />
        </mxCell>
        <mxCell id="S2JzVYqU0EBKo4TFE7KJ-7" value="Độc giả" style="shape=umlActor;verticalLabelPosition=bottom;verticalAlign=top;html=1;outlineConnect=0;" vertex="1" parent="1">
          <mxGeometry x="70" y="1830" width="25" height="40" as="geometry" />
        </mxCell>
        <mxCell id="S2JzVYqU0EBKo4TFE7KJ-8" value="" style="endArrow=none;dashed=1;html=1;rounded=0;" edge="1" parent="1" source="CmoEx9Rfht6jRH0gk-lO-88">
          <mxGeometry width="50" height="50" relative="1" as="geometry">
            <mxPoint x="57.5" y="1940" as="sourcePoint" />
            <mxPoint x="82.5" y="1890" as="targetPoint" />
          </mxGeometry>
        </mxCell>
        <mxCell id="CmoEx9Rfht6jRH0gk-lO-102" value="Xác nhận đã trả sách" style="verticalAlign=bottom;endArrow=block;shadow=0;strokeWidth=1;" parent="1" edge="1">
          <mxGeometry relative="1" as="geometry">
            <mxPoint x="227.5" y="2240" as="sourcePoint" />
            <mxPoint x="347.5" y="2240" as="targetPoint" />
            <Array as="points">
              <mxPoint x="287.5" y="2240.1800000000003" />
              <mxPoint x="297.5" y="2240.1800000000003" />
            </Array>
          </mxGeometry>
        </mxCell>
        <mxCell id="S2JzVYqU0EBKo4TFE7KJ-10" value="" style="endArrow=none;dashed=1;html=1;rounded=0;" edge="1" parent="1">
          <mxGeometry width="50" height="50" relative="1" as="geometry">
            <mxPoint x="82.05000000000001" y="2400" as="sourcePoint" />
            <mxPoint x="82.05000000000001" y="2370" as="targetPoint" />
          </mxGeometry>
        </mxCell>
        <mxCell id="CmoEx9Rfht6jRH0gk-lO-60" value="Gửi yêu cầu mượn" style="verticalAlign=bottom;endArrow=block;shadow=0;strokeWidth=1;" parent="1" edge="1">
          <mxGeometry relative="1" as="geometry">
            <mxPoint x="98" y="1320" as="sourcePoint" />
            <mxPoint x="223" y="1320" as="targetPoint" />
            <Array as="points">
              <mxPoint x="158" y="1320.18" />
              <mxPoint x="168" y="1320.18" />
            </Array>
          </mxGeometry>
        </mxCell>
        <mxCell id="CmoEx9Rfht6jRH0gk-lO-63" value="" style="verticalAlign=bottom;endArrow=open;dashed=1;endSize=8;shadow=0;strokeWidth=1;" parent="1" edge="1">
          <mxGeometry x="-0.04" relative="1" as="geometry">
            <mxPoint x="98" y="1336" as="targetPoint" />
            <mxPoint x="223" y="1336" as="sourcePoint" />
            <Array as="points">
              <mxPoint x="208" y="1336" />
            </Array>
            <mxPoint as="offset" />
          </mxGeometry>
        </mxCell>
        <mxCell id="CmoEx9Rfht6jRH0gk-lO-57" value="" style="points=[];perimeter=orthogonalPerimeter;rounded=0;shadow=0;strokeWidth=1;fillColor=#ffe6cc;strokeColor=#d79b00;" parent="1" vertex="1">
          <mxGeometry x="85" y="1310" width="10" height="400" as="geometry" />
        </mxCell>
        <mxCell id="CmoEx9Rfht6jRH0gk-lO-82" value="Nhập thông tin mượn&#xa;sách và bạn đọc" style="verticalAlign=bottom;endArrow=block;shadow=0;strokeWidth=1;" parent="1" edge="1">
          <mxGeometry x="-0.04" relative="1" as="geometry">
            <mxPoint x="100" y="1370" as="sourcePoint" />
            <mxPoint x="225" y="1370" as="targetPoint" />
            <Array as="points">
              <mxPoint x="160" y="1370.18" />
              <mxPoint x="170" y="1370.18" />
            </Array>
            <mxPoint as="offset" />
          </mxGeometry>
        </mxCell>
        <mxCell id="S2JzVYqU0EBKo4TFE7KJ-11" value="Độc giả" style="shape=umlActor;verticalLabelPosition=bottom;verticalAlign=top;html=1;outlineConnect=0;" vertex="1" parent="1">
          <mxGeometry x="77.5" y="1230" width="25" height="40" as="geometry" />
        </mxCell>
        <mxCell id="S2JzVYqU0EBKo4TFE7KJ-14" value="" style="endArrow=none;dashed=1;html=1;rounded=0;" edge="1" parent="1">
          <mxGeometry width="50" height="50" relative="1" as="geometry">
            <mxPoint x="90" y="1760" as="sourcePoint" />
            <mxPoint x="89.55" y="1710" as="targetPoint" />
          </mxGeometry>
        </mxCell>
      </root>
    </mxGraphModel>
  </diagram>
</mxfile>
